<svg xmlns="http://www.w3.org/2000/svg" height="92" width="1920" version="1.1" xmlns:xlink="http://www.w3.org/1999/xlink" viewBox="0 0 1920 92"><title>Group</title><defs><path id="a" d="M0 0h1920v106H0z"/></defs><g transform="translate(0 -14)" fill-rule="evenodd" fill="none"><mask id="b" fill="#fff"><use xlink:href="#a"/></mask><g mask="url(#b)" fill-rule="nonzero"><path opacity=".176" fill="#2491C7" d="M1476.8 84.849h-9.8V95H443V35c1.4-.158 2.7-.148 4.1-.148 14.7 0 27.2 8.811 32.7 21.41 4.3-3.466 9.7-5.55 15.6-5.55 8.8 0 16.6 4.619 20.9 11.556 2.3-2.632 5.7-4.304 9.4-4.304 2.6 0 4.9.768 6.9 2.081a24.601 24.601 0 0 1 19.3-9.333c11.8 0 21.6 8.209 24.2 19.207h18.6c.3-19.415 16.1-35.066 35.6-35.066 14.3 0 26.6 8.436 32.3 20.6 4.1-2.969 9.1-4.741 14.5-4.741s10.4 1.724 14.4 4.622c5.7-12.1 18-20.481 32.3-20.481 14.6 0 27.1 8.811 32.6 21.411 4.3-3.467 9.7-5.551 15.6-5.551 8.9 0 16.6 4.62 21 11.557 2.2-2.633 5.6-4.305 9.3-4.305 2.6 0 4.9.769 6.9 2.081 4.6-5.682 11.5-9.333 19.4-9.333 9.6 0 18 5.552 22.1 13.628-.2-1.414-.2-2.843-.2-4.292 0-25.432 20.6-46.049 46-46.049 23.3 0 42.5 17.241 45.6 39.634a24.61 24.61 0 0 1 11.7-2.921c11.7 0 21.6 8.209 24.1 19.207h29.9c-.2-1.46-.3-2.942-.3-4.452 0-19.673 16-35.621 35.6-35.621 14.7 0 27.2 8.811 32.7 21.41 4.3-3.468 9.7-5.552 15.6-5.552 8.8 0 16.6 4.621 20.9 11.557 2.3-2.633 5.7-4.305 9.4-4.305 2.6 0 4.9.769 6.9 2.081a24.604 24.604 0 0 1 19.3-9.333c4.6 0 8.8 1.228 12.4 3.342 3.7-2.114 7.9-3.342 12.4-3.342 7.9 0 15 3.729 19.5 9.509 4.4-14.674 18-25.367 34.1-25.367 11.3 0 21.3 5.217 27.8 13.355 6.2-5.206 14.2-8.347 22.9-8.347 14.6 0 27.2 8.811 32.7 21.41 4.2-3.466 9.7-5.55 15.6-5.55 9.6 0 17.8 5.436 22 13.379 2.2-1.998 5.1-3.227 9.7-3.134.1-21.567 17.6-39.029 39.2-39.029 16.9 0 31.2 10.653 36.8 25.594a35.458 35.458 0 0 1 27.2-12.67c1.9 0 3.8.031 5.6.074 2.6-.074 5.1-.074 7.9-.074 10.9 0 20.7 4.925 27.2 12.67 5.5-14.941 19.9-25.594 36.7-25.594 21.6 0 39.1 17.462 39.2 39.029 4.7-.093 7.6 1.136 9.8 3.134a24.718 24.718 0 0 1 22-13.379c5.9 0 11.3 2.084 15.6 5.55 5.5-12.599 18-21.41 32.6-21.41 8.8 0 16.7 3.141 22.9 8.347 6.6-8.138 16.6-13.355 27.8-13.355 16.1 0 29.7 10.693 34.2 25.367 4.5-5.78 11.5-9.509 19.4-9.509 4.6 0 8.8 1.228 12.4 3.342 3.7-2.114 7.9-3.342 12.4-3.342 7.8 0 14.8 3.651 19.4 9.333 1.9-1.312 4.3-2.081 6.8-2.081 3.8 0 7.1 1.672 9.4 4.305 4.4-6.936 12.1-11.557 20.9-11.557 6 0 11.4 2.084 15.6 5.552 5.5-12.599 18.1-21.41 32.7-21.41 19.7 0 35.6 15.948 35.6 35.621 0 1.51-.1 2.992-.3 4.452h30c2.5-10.998 12.3-19.207 24.1-19.207 4.2 0 8.2 1.06 11.6 2.921C1994.9 31.241 2014.1 14 2037.3 14c25.5 0 46.1 20.617 46.1 46.049 0 1.449-.1 2.878-.2 4.292 4.1-8.076 12.4-13.628 22.1-13.628 7.8 0 14.8 3.651 19.3 9.333 2-1.312 4.4-2.081 6.9-2.081 3.8 0 7.1 1.672 9.4 4.305 4.4-6.937 12.1-11.557 20.9-11.557 5.9 0 11.4 2.084 15.6 5.551 5.5-12.6 18.1-21.411 32.7-21.411 14.2 0 26.5 8.381 32.2 20.481 4.1-2.898 9-4.622 14.4-4.622s10.4 1.772 14.5 4.741c5.7-12.164 18-20.6 32.3-20.6 19.5 0 35.3 15.651 35.6 35.066h18.7c2.5-10.998 12.3-19.207 24.1-19.207 7.8 0 14.8 3.65 19.4 9.333 1.9-1.313 4.3-2.081 6.8-2.081 3.8 0 7.1 1.672 9.4 4.304 4.4-6.937 12.1-11.556 20.9-11.556 5.9 0 11.4 2.084 15.6 5.55 5.5-12.599 18.1-21.41 32.7-21.41 1.4 0 2.8.09 4.1.248V82h10v13h-1024V84.849zm-1034 0L443 35c-1.4-.158-2.9-.148-4.3-.148-14.6 0-27.17 8.811-32.66 21.41a24.648 24.648 0 0 0-15.61-5.55c-8.82 0-16.54 4.619-20.93 11.556-2.27-2.632-5.62-4.304-9.37-4.304-2.54 0-4.9.768-6.87 2.081-4.54-5.683-11.52-9.333-19.35-9.333-11.77 0-21.6 8.209-24.12 19.207h-18.65c-.3-19.415-16.12-35.066-35.61-35.066-14.3 0-26.63 8.436-32.3 20.6-4.08-2.969-9.09-4.741-14.53-4.741-5.36 0-10.32 1.724-14.37 4.622-5.69-12.1-17.99-20.481-32.25-20.481-14.62 0-27.17 8.811-32.66 21.411a24.692 24.692 0 0 0-15.62-5.551c-8.81 0-16.53 4.62-20.93 11.557-2.27-2.633-5.62-4.305-9.37-4.305-2.54 0-4.9.769-6.87 2.081-4.53-5.682-11.51-9.333-19.35-9.333-9.67 0-18.02 5.552-22.1 13.628.13-1.414.21-2.843.21-4.292C35.39 34.617 14.77 14-10.66 14c-23.26 0-42.47 17.241-45.6 39.634a24.599 24.599 0 0 0-11.66-2.921c-11.76 0-21.59 8.209-24.12 19.207h-29.91c.18-1.46.28-2.942.28-4.452 0-19.673-15.95-35.621-35.62-35.621-14.62 0-27.18 8.811-32.66 21.41a24.687 24.687 0 0 0-15.62-5.552c-8.82 0-16.54 4.621-20.93 11.557-2.27-2.633-5.62-4.305-9.37-4.305-2.54 0-4.9.769-6.87 2.081-4.54-5.682-11.51-9.333-19.35-9.333-4.52 0-8.74 1.228-12.39 3.342a24.59 24.59 0 0 0-12.38-3.342c-7.92 0-14.95 3.729-19.49 9.509-4.4-14.674-18.01-25.367-34.11-25.367-11.25 0-21.27 5.217-27.8 13.355a35.463 35.463 0 0 0-22.9-8.347c-14.62 0-27.18 8.811-32.67 21.41a24.648 24.648 0 0 0-15.61-5.55c-9.57 0-17.86 5.436-21.99 13.379-2.2-1.998-5.11-3.227-9.77-3.134-.07-21.567-17.573-39.029-39.158-39.029-16.857 0-31.226 10.653-36.745 25.594-6.535-7.745-16.306-12.67-27.233-12.67-4.087 0-8.006.709-11.664 1.978v48.016h4.849V95h1024V84.849z"/><path fill="#008FD5" d="M443 94.5V46c-1.4-.158-2.9-.148-4.3-.148-14.6 0-27.17 8.811-32.66 21.41a24.648 24.648 0 0 0-15.61-5.55c-8.82 0-16.54 4.619-20.93 11.556-2.27-2.632-5.62-4.304-9.37-4.304-2.54 0-4.9.768-6.87 2.081-4.54-5.683-11.52-9.333-19.35-9.333-11.77 0-21.6 8.209-24.12 19.207h-18.65c-.3-19.415-16.12-35.066-35.61-35.066-14.3 0-26.63 8.436-32.3 20.6-4.08-2.969-9.09-4.741-14.53-4.741-5.36 0-10.32 1.724-14.37 4.622-5.69-12.1-17.99-20.481-32.25-20.481-14.62 0-27.17 8.811-32.66 21.411a24.692 24.692 0 0 0-15.62-5.551c-8.81 0-16.53 4.62-20.93 11.557-2.27-2.633-5.62-4.305-9.37-4.305-2.54 0-4.9.769-6.87 2.081-4.53-5.682-11.51-9.333-19.35-9.333-9.67 0-18.02 5.552-22.1 13.628.13-1.414.21-2.843.21-4.292C35.39 45.617 14.77 25-10.66 25c-23.26 0-42.47 17.241-45.6 39.634a24.599 24.599 0 0 0-11.66-2.921c-11.76 0-21.59 8.209-24.12 19.207h-29.91c.18-1.46.28-2.942.28-4.452 0-19.673-15.95-35.621-35.62-35.621-14.62 0-27.18 8.811-32.66 21.41a24.687 24.687 0 0 0-15.62-5.552c-8.82 0-16.54 4.621-20.93 11.557-2.27-2.633-5.62-4.305-9.37-4.305-2.54 0-4.9.769-6.87 2.081-4.54-5.682-11.51-9.333-19.35-9.333-4.52 0-8.74 1.228-12.39 3.342a24.59 24.59 0 0 0-12.38-3.342c-7.92 0-14.95 3.729-19.49 9.509-4.4-14.674-18.01-25.367-34.11-25.367-11.25 0-21.27 5.217-27.8 13.355a35.463 35.463 0 0 0-22.9-8.347c-14.62 0-27.18 8.811-32.67 21.41a24.648 24.648 0 0 0-15.61-5.55c-9.57 0-17.86 5.436-21.99 13.379-2.2-1.998-5.11-3.227-9.77-3.134-.07-21.567-17.573-39.029-39.158-39.029-16.857 0-31.226 10.653-36.745 25.594-6.535-7.745-16.306-12.67-27.233-12.67-4.087 0-8.006.709-11.664 1.978v48.016l4.849.001V106h1024.2V94.5zM2490.8 93h10v13H1472V95.849H443V46c1.4-.158 2.7-.148 4.1-.148 14.7 0 27.2 8.811 32.7 21.41 4.3-3.466 9.7-5.55 15.6-5.55 8.8 0 16.6 4.619 20.9 11.556 2.3-2.632 5.7-4.304 9.4-4.304 2.6 0 4.9.768 6.9 2.081a24.601 24.601 0 0 1 19.3-9.333c11.8 0 21.6 8.209 24.2 19.207h18.6c.3-19.415 16.1-35.066 35.6-35.066 14.3 0 26.6 8.436 32.3 20.6 4.1-2.969 9.1-4.741 14.5-4.741s10.4 1.724 14.4 4.622c5.7-12.1 18-20.481 32.3-20.481 14.6 0 27.1 8.811 32.6 21.411 4.3-3.467 9.7-5.551 15.6-5.551 8.9 0 16.6 4.62 21 11.557 2.2-2.633 5.6-4.305 9.3-4.305 2.6 0 4.9.769 6.9 2.081 4.6-5.682 11.5-9.333 19.4-9.333 9.6 0 18 5.552 22.1 13.628-.2-1.414-.2-2.843-.2-4.292 0-25.432 20.6-46.049 46-46.049 23.3 0 42.5 17.241 45.6 39.634a24.61 24.61 0 0 1 11.7-2.921c11.7 0 21.6 8.209 24.1 19.207h29.9c-.2-1.46-.3-2.942-.3-4.452 0-19.673 16-35.621 35.6-35.621 14.7 0 27.2 8.811 32.7 21.41 4.3-3.468 9.7-5.552 15.6-5.552 8.8 0 16.6 4.621 20.9 11.557 2.3-2.633 5.7-4.305 9.4-4.305 2.6 0 4.9.769 6.9 2.081a24.604 24.604 0 0 1 19.3-9.333c4.6 0 8.8 1.228 12.4 3.342 3.7-2.114 7.9-3.342 12.4-3.342 7.9 0 15 3.729 19.5 9.509 4.4-14.674 18-25.367 34.1-25.367 11.3 0 21.3 5.217 27.8 13.355 6.2-5.206 14.2-8.347 22.9-8.347 14.6 0 27.2 8.811 32.7 21.41 4.2-3.466 9.7-5.55 15.6-5.55 9.6 0 17.8 5.436 22 13.379 2.2-1.998 5.1-3.227 9.7-3.134.1-21.567 17.6-39.029 39.2-39.029 16.9 0 31.2 10.653 36.8 25.594a35.458 35.458 0 0 1 27.2-12.67c1.6 0 3.7.022 5.8.049 2.7-.049 4.8-.049 7.7-.049 10.9 0 20.7 4.925 27.2 12.67 5.5-14.941 19.9-25.594 36.7-25.594 21.6 0 39.1 17.462 39.2 39.029 4.7-.093 7.6 1.136 9.8 3.134a24.718 24.718 0 0 1 22-13.379c5.9 0 11.3 2.084 15.6 5.55 5.5-12.599 18-21.41 32.6-21.41 8.8 0 16.7 3.141 22.9 8.347 6.6-8.138 16.6-13.355 27.8-13.355 16.1 0 29.7 10.693 34.2 25.367 4.5-5.78 11.5-9.509 19.4-9.509 4.6 0 8.8 1.228 12.4 3.342 3.7-2.114 7.9-3.342 12.4-3.342 7.8 0 14.8 3.651 19.4 9.333 1.9-1.312 4.3-2.081 6.8-2.081 3.8 0 7.1 1.672 9.4 4.305 4.4-6.936 12.1-11.557 20.9-11.557 6 0 11.4 2.084 15.6 5.552 5.5-12.599 18.1-21.41 32.7-21.41 19.7 0 35.6 15.948 35.6 35.621 0 1.51-.1 2.992-.3 4.452h30c2.5-10.998 12.3-19.207 24.1-19.207 4.2 0 8.2 1.06 11.6 2.921C1994.9 42.241 2014.1 25 2037.3 25c25.5 0 46.1 20.617 46.1 46.049 0 1.449-.1 2.878-.2 4.292 4.1-8.076 12.4-13.628 22.1-13.628 7.8 0 14.8 3.651 19.3 9.333 2-1.312 4.4-2.081 6.9-2.081 3.8 0 7.1 1.672 9.4 4.305 4.4-6.937 12.1-11.557 20.9-11.557 5.9 0 11.4 2.084 15.6 5.551 5.5-12.6 18.1-21.411 32.7-21.411 14.2 0 26.5 8.381 32.2 20.481 4.1-2.898 9-4.622 14.4-4.622s10.4 1.772 14.5 4.741c5.7-12.164 18-20.6 32.3-20.6 19.5 0 35.3 15.651 35.6 35.066h18.7c2.5-10.998 12.3-19.207 24.1-19.207 7.8 0 14.8 3.65 19.4 9.333 1.9-1.313 4.3-2.081 6.8-2.081 3.8 0 7.1 1.672 9.4 4.304 4.4-6.937 12.1-11.556 20.9-11.556 5.9 0 11.4 2.084 15.6 5.55 5.5-12.599 18.1-21.41 32.7-21.41 1.4 0 2.8.09 4.1.248V93zM443 95.849h1029V106H443V95.849z"/></g></g></svg>