<svg xmlns="http://www.w3.org/2000/svg" height="24" width="143" version="1.1" xmlns:xlink="http://www.w3.org/1999/xlink" viewBox="0 0 143 24"><title>logo dark</title><defs><path id="a" d="M4.487.332H.183v5.305h4.304z"/></defs><g fill-rule="evenodd" fill="none"><path fill="#565656" d="M69.413 13.983c0-3.13-2.319-5.693-5.994-5.693h-3.412v11.387h3.412c3.675 0 5.994-2.508 5.994-5.656v-.038zm-5.994 6.6h-4.391V7.383h4.391c4.148 0 7.012 2.847 7.012 6.561v.038c0 3.714-2.864 6.6-7.012 6.6zM77.294 20.77c-1.997 0-4.014-.698-5.597-2.11l1.716-2.056c1.187.98 2.43 1.602 3.939 1.602 1.187 0 1.903-.472 1.903-1.244v-.038c0-.735-.452-1.112-2.657-1.678-2.658-.679-4.373-1.414-4.373-4.034v-.038c0-2.394 1.923-3.978 4.617-3.978 1.923 0 3.562.603 4.901 1.678l-1.508 2.187c-1.168-.81-2.318-1.3-3.431-1.3-1.111 0-1.695.509-1.695 1.15v.037c0 .867.566 1.15 2.845 1.734 2.678.698 4.185 1.66 4.185 3.96v.037c0 2.621-1.998 4.091-4.845 4.091M91.415 12.004c0-1.3-.905-1.998-2.356-1.998h-2.243v4.034h2.299c1.451 0 2.3-.868 2.3-1.998v-.038zm-2.394 4.62h-2.205v3.958h-2.902V7.384h5.39c3.147 0 5.051 1.868 5.051 4.563v.038c0 3.054-2.374 4.638-5.334 4.638zM100.28 10.778l-1.757 4.28h3.507l-1.75-4.28zm3.99 9.804l-1.21-2.96h-5.575l-1.206 2.96h-2.96L98.974 7.29h2.676l5.66 13.292h-3.04zM116.68 11.89c0-1.244-.87-1.885-2.29-1.885h-2.88v3.79h2.94c1.42 0 2.23-.755 2.23-1.866v-.039zm-.06 8.692l-2.83-4.224h-2.28v4.224h-2.9V7.384h6.03c3.11 0 4.98 1.641 4.98 4.356v.038c0 2.13-1.15 3.468-2.83 4.09l3.22 4.714h-3.39zM130.02 20.581l-4.09-5.617-1.52 1.583v4.034h-2.91V7.384h2.91v5.77l5.35-5.77h3.5l-5.37 5.6 5.62 7.597z"/><g transform="translate(135.81 .613)"><mask id="b" fill="#fff"><use xlink:href="#a"/></mask><path mask="url(#b)" fill="#565656" d="M.183.332h4.266v1.251H1.638v.802h2.546v1.161H1.638v.841h2.849v1.25H.183z"/></g><path fill="#565656" d="M141.08 6.25h1.48V.945h-1.48zM10.248 5.998c-2.086 0-3.782 1.69-3.782 3.767 0 1.486.91 2.897 2.213 3.43a.581.581 0 0 1 .357.53v2.142h2.425v-2.142c0-.192.11-.43.356-.53 1.304-.533 2.214-1.943 2.214-3.43 0-2.077-1.697-3.767-3.783-3.767"/><path fill="#565656" d="M12.18 13.821v2.261a.5.5 0 0 1-.504.505H8.82a.5.5 0 0 1-.503-.505v-2.26c-1.535-.666-2.57-2.288-2.57-4.058 0-2.473 2.02-4.485 4.501-4.485 2.482 0 4.502 2.012 4.502 4.485 0 1.765-1.029 3.383-2.57 4.057m-.723 4.006H9.04a.359.359 0 1 1 0-.719h2.417a.359.359 0 1 1 0 .72m0 1.084H9.04a.36.36 0 0 1 0-.718h2.417a.359.359 0 1 1 0 .718m-.847 1.086h-.723a.36.36 0 0 1 0-.719h.723a.359.359 0 1 1 0 .72m-.362-17.607C4.588 2.392 0 6.982 0 12.643s4.588 10.251 10.248 10.251c5.661 0 10.249-4.59 10.249-10.25 0-5.663-4.588-10.252-10.249-10.252M36.291 20.581V9.12l-5.222 7.598h-.075L25.773 9.12v11.462h-.942V7.384h.923l5.297 7.805 5.296-7.805h.924v13.197zM40.59 20.581h.981V7.384h-.981zM55.124 20.581L45.831 8.855v11.726h-.942V7.384h.924l9.104 11.482V7.384h.941v13.197z"/></g></svg>