<svg xmlns="http://www.w3.org/2000/svg" height="289" width="1024" version="1.1" viewBox="0 0 1024 289"><title>Group 14</title><g transform="translate(0 -7)" fill-rule="evenodd" fill="none"><path opacity=".1" fill="#fff" d="M776.21 168.95h-4.51v-6.67H765v-4.58h6.7V151h4.51v6.7h6.74v4.58h-6.74zM891.21 295.95h-4.51v-6.67H880v-4.58h6.7V278h4.51v6.7h6.74v4.58h-6.74zM491.21 130.95h-4.51v-6.67H480v-4.58h6.7V113h4.51v6.7h6.74v4.58h-6.74zM372.539 96.361l-4.152 1.762-2.604-6.136-6.168 2.618-1.79-4.218 6.167-2.618-2.618-6.169 4.151-1.762 2.618 6.169 6.205-2.634 1.79 4.219-6.204 2.633z"/><path opacity=".05" stroke="#fff" stroke-width="4" d="M539.58 158.748l18.672-7.167 7.167 18.671-18.671 7.167z"/><path opacity=".1" stroke="#fff" stroke-width="4" d="M3.08 152.748l18.672-7.167 7.167 18.671-18.671 7.167zM868.592 112.34l16.725 3.252-3.25 16.725-16.726-3.251zM759.068 244.34l-16.725 3.252 3.25 16.725 16.726-3.251zM587.068 2.345l-16.725 3.25 3.251 16.726 16.725-3.251zM155.727 200.023l14.629-1.796 1.796 14.629-14.629 1.796zM1016.256 164.015l14.63-1.797 1.796 14.63-14.63 1.796z"/><circle opacity=".05" r="9.598" cy="125.6" stroke="#fff" cx="267.6" stroke-width="4"/><circle opacity=".05" r="7.355" cy="208.36" stroke="#fff" cx="481.36" stroke-width="4"/><circle opacity=".05" r="8.976" cy="275.73" stroke="#fff" cx="646.98" stroke-width="4"/><circle opacity=".1" r="9.598" cy="107.6" stroke="#fff" cx="111.6" stroke-width="4"/><circle opacity=".1" r="8.895" cy="33.895" stroke="#fff" cx="313.9" stroke-width="4"/></g></svg>